HIERARCHY
ROOT Hips
{
	OFFSET 0.000000 0.000000 0.000000
	CHANNELS 6 Xposition Yposition Zposition Zrotation Yrotation Xrotation 
	JOINT LHipJoint
	{
		OFFSET 0.000000 0.000000 0.000000
		CHANNELS 3 Zrotation Yrotation Xrotation
		JOINT LeftUpLeg
		{
			OFFSET 1.363060 -1.794630 0.839290
			CHANNELS 3 Zrotation Yrotation Xrotation
			JOINT LeftLeg
			{
				OFFSET 2.448110 -6.726130 0.000000
				CHANNELS 3 Zrotation Yrotation Xrotation
				JOINT LeftFoot
				{
					OFFSET 2.562200 -7.039590 0.000000
					CHANNELS 3 Zrotation Yrotation Xrotation
					JOINT LeftToeBase
					{
						OFFSET 0.157640 -0.433110 2.322550
						CHANNELS 3 Zrotation Yrotation Xrotation
						End Site
						{
							OFFSET 0.000000 0.000000 0.000000
						}
					}
				}
			}
		}
	}
	JOINT RHipJoint
	{
		OFFSET 0.000000 0.000000 0.000000
		CHANNELS 3 Zrotation Yrotation Xrotation
		JOINT RightUpLeg
		{
			OFFSET -1.305520 -1.794630 0.839290
			CHANNELS 3 Zrotation Yrotation Xrotation
			JOINT RightLeg
			{
				OFFSET -2.542530 -6.985550 0.000000
				CHANNELS 3 Zrotation Yrotation Xrotation
				JOINT RightFoot
				{
					OFFSET -2.568260 -7.056230 0.000000
					CHANNELS 3 Zrotation Yrotation Xrotation
					JOINT RightToeBase
					{
						OFFSET -0.164730 -0.452590 2.363150
						CHANNELS 3 Zrotation Yrotation Xrotation
						End Site
						{
							OFFSET 0.000000 0.000000 0.000000
						}
					}
				}
			}
		}
	}
	JOINT LowerBack
	{
		OFFSET 0.000000 0.000000 0.000000
		CHANNELS 3 Zrotation Yrotation Xrotation
		JOINT Spine
		{
			OFFSET 0.028270 2.035590 -0.193380
			CHANNELS 3 Zrotation Yrotation Xrotation
			JOINT Spine1
			{
				OFFSET 0.056720 2.048850 -0.042750
				CHANNELS 3 Zrotation Yrotation Xrotation
				JOINT Neck
				{
					OFFSET 0.000000 0.000000 0.000000
					CHANNELS 3 Zrotation Yrotation Xrotation
					JOINT Neck1
					{
						OFFSET -0.054170 1.746240 0.172020
						CHANNELS 3 Zrotation Yrotation Xrotation
						JOINT Head
						{
							OFFSET 0.104070 1.761360 -0.123970
							CHANNELS 3 Zrotation Yrotation Xrotation
							End Site
							{
								OFFSET 0.000000 0.000000 0.000000
							}
						}
					}
				}
				JOINT LeftShoulder
				{
					OFFSET 0.000000 0.000000 0.000000
					CHANNELS 3 Zrotation Yrotation Xrotation
					JOINT LeftArm
					{
						OFFSET 3.362410 1.200890 -0.311210
						CHANNELS 3 Zrotation Yrotation Xrotation
						JOINT LeftForeArm
						{
							OFFSET 4.983000 -0.000000 -0.000000
							CHANNELS 3 Zrotation Yrotation Xrotation
							JOINT LeftHand
							{
								OFFSET 3.483560 -0.000000 -0.000000
								CHANNELS 3 Zrotation Yrotation Xrotation
								JOINT LeftFingerBase
								{
									OFFSET 0.000000 0.000000 0.000000
									CHANNELS 3 Zrotation Yrotation Xrotation
									JOINT LeftHandIndex1
									{
										OFFSET 0.715260 -0.000000 -0.000000
										CHANNELS 3 Zrotation Yrotation Xrotation
										End Site
										{
											OFFSET 0.000000 0.000000 0.000000
										}
									}
								}
								JOINT LThumb
								{
									OFFSET 0.000000 0.000000 0.000000
									CHANNELS 3 Zrotation Yrotation Xrotation
									End Site
									{
										OFFSET 0.000000 0.000000 0.000000
									}
								}
							}
						}
					}
				}
				JOINT RightShoulder
				{
					OFFSET 0.000000 0.000000 0.000000
					CHANNELS 3 Zrotation Yrotation Xrotation
					JOINT RightArm
					{
						OFFSET -3.136600 1.374050 -0.404650
						CHANNELS 3 Zrotation Yrotation Xrotation
						JOINT RightForeArm
						{
							OFFSET -5.241900 -0.000000 -0.000000
							CHANNELS 3 Zrotation Yrotation Xrotation
							JOINT RightHand
							{
								OFFSET -3.444170 -0.000000 -0.000000
								CHANNELS 3 Zrotation Yrotation Xrotation
								JOINT RightFingerBase
								{
									OFFSET 0.000000 0.000000 0.000000
									CHANNELS 3 Zrotation Yrotation Xrotation
									JOINT RightHandIndex1
									{
										OFFSET -0.622530 -0.000000 -0.000000
										CHANNELS 3 Zrotation Yrotation Xrotation
										End Site
										{
											OFFSET 0.000000 0.000000 0.000000
										}
									}
								}
								JOINT RThumb
								{
									OFFSET 0.000000 0.000000 0.000000
									CHANNELS 3 Zrotation Yrotation Xrotation
									End Site
									{
										OFFSET 0.000000 0.000000 0.000000
									}
								}
							}
						}
					}
				}
			}
		}
	}
}
MOTION
Frames: 4
Frame Time: 0.008333
25.086612 20.120793 8.408188 -0.173448 -3.276639 11.929275 -16.478542 4.274384 6.802656 7.866297 -7.798175 -20.639127 -25.405543 -37.911059 48.798241 -38.235023 55.600191 -22.164919 -1.358642 0.095176 -9.035924 14.963193 -4.139390 6.075623 -8.233428 12.882873 -22.498498 12.705658 21.256041 36.103938 30.372506 -41.238537 -13.915195 -0.057344 -0.159035 -4.881989 0.593001 0.356024 -1.695123 0.752237 0.414284 -4.231879 -1.557444 0.293079 -2.212976 -1.445076 -0.011640 -3.748564 7.512145 -0.192276 18.712385 -3.930155 1.794732 -16.837201 -0.008180 -3.323571 0.936894 -45.113991 3.332830 18.665011 36.280546 -7.403646 -55.553883 6.970867 1.824740 -51.163494 -2.940382 -0.257054 -0.000000 0.000000 0.000000 0.000000 0.000000 0.000000 0.000000 -0.095765 3.653659 0.330652 49.877975 -1.084123 12.418288 -31.536026 21.195528 -57.530223 -7.359573 -7.610630 -42.245355 4.599030 1.804063 0.000000 0.000000 0.000000 0.000000 0.000000 0.000000 0.000000
25.094060 20.411353 8.466002 -0.058208 -2.743376 11.510956 -16.403853 4.527174 6.920504 7.882158 -7.655848 -19.929079 -23.380540 -37.385270 46.824902 -39.293071 53.394747 -21.602143 -1.067410 -0.151888 -7.003523 15.072097 -4.351602 6.154319 -9.212752 14.056902 -20.863302 9.963800 18.135664 31.298688 28.879720 -41.201565 -6.441151 -0.058699 -0.175497 -3.395189 0.647674 0.243472 -2.304465 0.764041 0.290495 -4.235334 -1.618715 0.164374 -2.100218 -1.470517 -0.073479 -3.585081 7.360755 -0.278396 19.427633 -3.672079 1.723757 -17.055315 0.495182 -2.472978 1.065979 -44.582459 3.491149 18.970775 37.717566 -6.744535 -55.304347 6.537864 1.241833 -51.528775 -2.629646 -0.241008 -0.000000 0.000000 0.000000 0.000000 0.000000 0.000000 0.000000 -0.639049 2.731852 0.157180 49.457434 -2.667471 13.879826 -34.259423 20.815542 -58.567651 -5.403532 -6.974041 -43.381296 3.870485 2.010800 0.000000 0.000000 0.000000 0.000000 0.000000 0.000000 0.000000
25.104850 20.683030 8.514960 -0.119980 -2.517469 11.399711 -16.157184 4.290097 7.079393 7.564192 -6.766868 -19.790485 -26.877453 -39.315143 50.964968 -39.839613 55.330812 -26.025173 -1.235016 -0.873473 -7.859283 14.900744 -3.966889 6.376576 -9.981401 15.169930 -20.114287 12.869190 21.503121 33.388565 32.967719 -44.330191 -11.744867 -0.095603 -0.318552 -1.371947 0.799259 0.234788 -3.234851 0.767115 0.258556 -4.236840 -1.656303 0.136306 -2.010767 -1.409018 -0.141680 -3.390201 7.181932 -0.377052 20.111682 -3.230005 1.654745 -16.674120 0.851322 -1.713055 1.010755 -43.163189 4.182053 16.237351 38.068045 -8.934458 -55.660950 7.056551 1.120316 -50.322278 -2.834109 -0.160757 -0.000000 0.000000 0.000000 0.000000 0.000000 0.000000 0.000000 -1.096123 2.011285 0.120665 48.600708 -4.005255 14.236681 -36.426417 20.515613 -59.732572 -5.322299 -6.800057 -44.385335 3.801028 1.935063 -0.000000 0.000000 0.000000 0.000000 0.000000 0.000000 0.000000
25.119640 20.935750 8.548401 -0.134450 -2.214305 11.209334 -15.960737 4.080434 7.078002 7.588671 -6.944906 -19.309390 -28.857829 -39.211991 53.203256 -38.858449 57.973539 -26.889762 -1.427662 -0.203320 -9.409847 14.703787 -3.532425 6.563272 -10.174978 15.225330 -19.982808 18.076277 26.027979 38.783727 34.697331 -49.245642 -18.686065 -0.239923 -0.825995 -1.413746 0.932670 0.216948 -3.954342 0.770651 0.222141 -4.238494 -1.687966 0.101650 -1.915363 -1.289891 -0.176987 -3.187613 7.195914 -0.339390 20.982760 -3.593440 1.741935 -17.166815 1.388051 -1.008808 1.003607 -41.995281 4.574578 13.226485 38.564468 -11.030349 -55.681924 7.367887 0.645908 -48.824983 -2.887408 -0.069125 -0.000000 0.000000 0.000000 0.000000 0.000000 0.000000 0.000000 -1.785466 1.303434 0.042255 47.781737 -5.528451 14.243370 -38.913009 20.865142 -61.428259 -6.181476 -6.666923 -45.277845 4.004188 1.663375 -0.000000 0.000000 0.000000 0.000000 0.000000 0.000000 0.000000
